<?xml version="1.0" standalone="no"?>
<!DOCTYPE svg PUBLIC "-//W3C//DTD SVG 20010904//EN"
 "http://www.w3.org/TR/2001/REC-SVG-20010904/DTD/svg10.dtd">
<svg version="1.0" xmlns="http://www.w3.org/2000/svg"
 width="260.000000pt" height="260.000000pt" viewBox="0 0 260.000000 260.000000"
 preserveAspectRatio="xMidYMid meet">
<metadata>
Created by potrace 1.14, written by Peter Selinger 2001-2017
</metadata>
<g transform="translate(0.000000,260.000000) scale(0.100000,-0.100000)"
fill="#000000" stroke="none">
<path d="M1744 2226 c-57 -25 -74 -53 -74 -119 l0 -59 53 6 c28 3 57 5 63 6 7
0 11 18 10 48 -1 41 2 47 21 50 26 4 42 -22 36 -57 -3 -24 -56 -133 -122 -254
-21 -38 -30 -68 -27 -85 2 -15 5 -30 5 -33 1 -6 97 -3 181 6 19 2 57 4 83 4
46 1 48 2 43 29 -2 15 -5 35 -5 44 -1 15 -10 16 -76 11 -41 -3 -75 -2 -75 2 0
5 11 22 23 39 13 17 42 69 65 115 62 124 54 194 -27 239 -44 23 -133 28 -177
8z"/>
<path d="M1569 1986 c-2 -2 -47 -7 -99 -11 -52 -3 -106 -8 -120 -10 -14 -2
-63 -7 -110 -10 -47 -4 -96 -9 -110 -10 -14 -2 -63 -6 -110 -10 -47 -3 -101
-8 -120 -11 -19 -2 -61 -6 -93 -9 -59 -4 -80 -11 -73 -23 2 -4 7 -47 10 -97 4
-49 9 -103 11 -120 2 -16 6 -70 10 -120 3 -49 8 -101 10 -115 2 -14 6 -56 10
-95 3 -38 8 -90 10 -115 2 -25 7 -81 10 -125 3 -44 7 -93 10 -110 2 -16 7 -66
10 -110 3 -44 8 -93 10 -110 2 -16 7 -73 11 -125 4 -52 8 -102 10 -110 1 -8 3
-21 3 -28 1 -11 19 -12 89 -7 48 4 98 8 112 10 14 3 63 7 110 10 47 3 101 7
120 10 19 2 69 7 110 10 41 4 86 8 100 10 14 2 66 6 115 10 126 9 128 9 121
53 -3 21 -8 74 -12 120 -9 124 -6 117 -50 116 -45 -1 -168 -11 -266 -20 l-68
-6 -1 28 c0 52 -10 158 -18 206 -12 68 -3 75 108 83 51 4 101 9 110 10 9 2 33
4 54 4 l39 1 -7 81 c-4 44 -8 88 -10 97 -2 9 -4 34 -4 56 l-1 38 -82 -6 c-127
-9 -212 -17 -225 -21 -8 -3 -13 6 -14 23 0 15 -2 36 -3 47 -2 11 -6 59 -10
108 -7 80 -6 87 11 88 10 0 25 2 33 4 8 1 58 6 110 10 52 4 104 8 115 10 11 1
30 3 43 4 13 0 21 4 19 9 -3 4 -8 45 -11 92 -8 97 -17 184 -21 188 -1 1 -4 0
-6 -2z"/>
</g>
</svg>
